<svg id="logo" xmlns="http://www.w3.org/2000/svg" viewBox="0 0 177 36.9">
  <style>
    .st0{fill:#1AB798;}
  </style>
  <path class="st0" d="M61 19.8l-2 3.9-2.3 4.4h-3l-2.3-4.4-2-3.9h-.1v11.1h-4.1V10.3H49l3.7 7.3 2.5 5.1h.2l2.5-5.2 3.5-7.2h3.8V31h-4.1V19.8H61zM81.2 25.7c0 .9-.2 1.7-.6 2.4-.4.7-.9 1.2-1.5 1.7s-1.3.8-2.1 1c-.8.2-1.6.3-2.4.3-.8 0-1.6-.1-2.4-.3-.8-.2-1.5-.6-2.1-1-.6-.4-1.1-1-1.5-1.7-.4-.7-.5-1.5-.5-2.4v-4.3c0-.9.2-1.7.6-2.4.4-.7.9-1.2 1.5-1.7s1.3-.8 2.1-1c.8-.2 1.6-.3 2.4-.3.9 0 1.7.1 2.5.3.8.2 1.5.6 2.1 1 .6.5 1.1 1 1.4 1.7.3.7.5 1.5.5 2.4v4.3zM77.4 22c0-.5-.1-.9-.2-1.2-.2-.3-.4-.6-.6-.8-.3-.2-.5-.4-.9-.5-.3-.1-.6-.1-.9-.1s-.6 0-1 .1c-.3.1-.6.2-.9.5-.3.2-.5.5-.6.8-.2.3-.3.7-.3 1.2v3c0 .5.1.9.2 1.2.1.3.4.6.6.8.3.2.5.4.9.5.3.1.7.1 1 .1.3 0 .6 0 .9-.1.3-.1.6-.2.9-.5.3-.2.5-.5.6-.8.2-.3.2-.7.2-1.2v-3zM97 25.7c0 1.8-.5 3.2-1.4 4.1-.9.9-2.1 1.3-3.7 1.3-.5 0-1.1-.1-1.8-.3-.7-.2-1.5-.5-2.3-1l-.3 1.2H84V9.5h3.8v7.8c1-.6 1.8-.9 2.5-1.1.7-.2 1.3-.3 1.8-.3 1.7 0 2.9.5 3.7 1.5.8 1 1.1 2.3 1.1 3.9v4.4zm-3.9-3.9c0-.8-.2-1.4-.5-1.8-.4-.3-.8-.5-1.3-.5s-1 .1-1.6.4c-.6.3-1.2.6-1.8 1v5.5c.2.1.5.3.8.4.3.1.6.3.9.4l.9.3c.3.1.6.1.8.1.5 0 1-.2 1.3-.5.4-.4.5-.9.5-1.7v-3.6zM100.2 12.1c0-.6.2-1.1.6-1.5s.9-.6 1.5-.6 1.1.2 1.5.6.6.9.6 1.5-.2 1.1-.6 1.5c-.4.4-.9.6-1.5.6s-1.1-.2-1.5-.6c-.4-.4-.6-.9-.6-1.5zm.2 18.8V16.1h3.8v14.8h-3.8zM112.2 26.1c0 .3 0 .6.1.8 0 .2.1.4.3.5.2.1.4.2.6.2.3 0 .6.1 1 .1l.1 3.2c-.3.1-.7.1-1 .1h-.9c-.9 0-1.6-.1-2.1-.3-.5-.2-.9-.5-1.2-.9-.3-.4-.5-.8-.6-1.3-.1-.5-.1-1.1-.1-1.7V9.5h3.8v16.6zM120.1 24.6v.5c0 .4.1.8.2 1.1.2.3.4.6.6.8.3.2.5.4.9.4.3.1.7.2 1 .2.4 0 .9-.1 1.6-.2.6-.1 1.3-.5 2-1l2.1 2.6c-.5.4-.9.8-1.4 1.1-.5.3-.9.5-1.4.6-.5.1-.9.3-1.4.3-.5 0-.9.1-1.4.1-.9 0-1.7-.1-2.5-.3-.8-.2-1.5-.6-2.1-1-.6-.4-1.1-1-1.4-1.7-.4-.7-.5-1.5-.5-2.4v-3.8c0-.9.2-1.7.5-2.5.3-.7.8-1.3 1.4-1.8.6-.5 1.2-.9 2-1.1.8-.3 1.6-.4 2.5-.4.9 0 1.8.1 2.5.4.8.3 1.4.6 2 1.1.6.5 1 1.1 1.3 1.8.3.7.5 1.5.5 2.5v2.9h-9zm5-2.7c0-.8-.3-1.4-.8-1.8-.5-.4-1.1-.6-1.8-.6s-1.3.2-1.8.7c-.5.4-.8 1.1-.8 1.9v.2h5.1v-.4zM140.5 29.7c-.9.5-1.7.9-2.4 1.1s-1.4.3-2 .3c-1.5 0-2.7-.4-3.5-1.2-.8-.8-1.2-1.9-1.2-3.3 0-.8.2-1.5.5-2.1.3-.6.8-1 1.3-1.4.5-.4 1.1-.6 1.8-.8.6-.2 1.2-.2 1.8-.2h3.8v-.6c0-.7-.2-1.2-.6-1.6-.4-.3-1.1-.5-2.1-.5-.5 0-1.1.1-1.8.2s-1.4.5-2.1 1.1l-1.7-2.8c1-.8 2.1-1.3 3.1-1.6 1-.2 2-.4 2.9-.4 2.1 0 3.7.5 4.7 1.4 1 1 1.5 2.4 1.5 4.4V31H141l-.5-1.3zm.1-4.8H136.7c-.2 0-.4.1-.6.2-.2.1-.3.3-.5.5-.1.2-.2.4-.2.7 0 .4.1.7.4 1 .3.3.7.4 1.3.4.6 0 1.3-.1 1.9-.4.6-.3 1.1-.5 1.5-.7v-1.7zM160.4 25.8c0 1.6-.4 2.9-1.3 3.9s-2.2 1.5-3.9 1.5c-.5 0-1.1-.1-1.8-.1-.7-.1-1.4-.3-2.1-.7V37h-3.8V16.1h3.5l.3 1.3c.8-.5 1.6-.9 2.4-1.1.7-.2 1.4-.4 1.9-.4 1.6 0 2.8.4 3.7 1.3.8.9 1.3 2.3 1.3 4.1v4.5zm-3.9-4.1c0-.9-.2-1.5-.5-1.8-.4-.3-.8-.5-1.3-.5-.2 0-.5 0-.8.1l-.9.3c-.3.1-.6.3-.9.4-.3.2-.6.3-.8.5v5.9c.7.3 1.3.5 1.8.6.5.1 1 .2 1.4.2.6 0 1.1-.1 1.5-.5s.6-.9.6-1.8v-3.4zM176.2 25.8c0 1.6-.4 2.9-1.3 3.9s-2.2 1.5-3.9 1.5c-.5 0-1.1-.1-1.8-.1-.7-.1-1.4-.3-2.1-.7V37h-3.8V16.1h3.5l.3 1.3c.8-.5 1.6-.9 2.4-1.1.7-.2 1.4-.4 1.9-.4 1.6 0 2.8.4 3.7 1.3.8.9 1.3 2.3 1.3 4.1v4.5zm-3.9-4.1c0-.9-.2-1.5-.5-1.8-.4-.3-.8-.5-1.3-.5-.2 0-.5 0-.8.1l-.9.3c-.3.1-.6.3-.9.4-.3.2-.6.3-.8.5v5.9c.7.3 1.3.5 1.8.6.5.1 1 .2 1.4.2.6 0 1.1-.1 1.5-.5s.6-.9.6-1.8v-3.4z"/>
  <path d="M25.5 14.7c1.9-6.7 6.4-6.5 6.7-6.5.6.1 1.2-.3 1.4-.8.2-.6.1-1.2-.4-1.6-3.1-2.6-6.3-4.3-9.5-5.2-2.7-.7-5.5-.8-8.2-.2-3.8.7-6.8 2.6-8.4 3.9L4.4 1.6c-.5-.6-1.4-.6-2 0-.5.5-.5 1.4 0 2L6 7.1c.5.5 1.4.6 1.9.1C10.3 5.1 18.6-.9 29 6c-.2.1-.3.1-.5.2-1.8.9-4.1 2.8-5.5 7-1.3.4-4 1.4-6.2 3.6s-3.2 4.9-3.6 6.2c-4.1 1.3-6 3.7-6.9 5.4L6 29c-5-7.5-3.4-13.9-.9-18.1.4-.7.2-1.5-.5-1.9-.7-.5-1.5-.2-1.9.4-2.6 4.5-5.6 13.5 3 23.8.3.3.7.5 1.1.5.2 0 .4 0 .5-.1.6-.2.9-.8.8-1.4 0 0-.4-4.8 6.5-6.7.5-.1.9-.6 1-1.1 0 0 .6-3.2 3.1-5.6s5.5-3 5.6-3c.6-.2 1-.5 1.2-1.1zm10.3 8.7l-1.6-1.6c-.5-.5-1.4-.5-2 0-.5.5-.5 1.4 0 2l1.6 1.6c.4.4.7 1 .7 1.6 0 .6-.2 1.2-.7 1.6-.4.4-1 .7-1.6.7-.6 0-1.2-.2-1.6-.7l-8.3-8.3c-.5-.5-1.4-.5-2 0-.5.5-.5 1.4 0 2l8.3 8.3c1 1 2.2 1.5 3.6 1.5s2.6-.5 3.6-1.5 1.5-2.2 1.5-3.6-.5-2.6-1.5-3.6z"/>
</svg>
