<?xml version="1.0" encoding="utf-8"?>
<!-- Generator: Adobe Illustrator 21.0.2, SVG Export Plug-In . SVG Version: 6.00 Build 0)  -->
<svg version="1.1" id="Layer_1" xmlns="http://www.w3.org/2000/svg" xmlns:xlink="http://www.w3.org/1999/xlink" x="0px" y="0px"
	 viewBox="0 0 175.1 36.9" style="enable-background:new 0 0 175.1 36.9;" xml:space="preserve">
<style type="text/css">
	.st0{fill:#1AB798;}
</style>
<g>
	<g>
		<path class="st0" d="M61,19.8L59,23.7l-2.3,4.4h-3l-2.3-4.4l-2-3.9h-0.1v11.1h-4.1V10.3H49l3.7,7.3l2.5,5.1h0.2l2.5-5.2l3.5-7.2
			h3.8v20.7h-4.1V19.8H61z"/>
		<path class="st0" d="M81.2,25.7c0,0.9-0.2,1.7-0.6,2.4c-0.4,0.7-0.9,1.2-1.5,1.7c-0.6,0.5-1.3,0.8-2.1,1c-0.8,0.2-1.6,0.3-2.4,0.3
			c-0.8,0-1.6-0.1-2.4-0.3c-0.8-0.2-1.5-0.6-2.1-1c-0.6-0.4-1.1-1-1.5-1.7c-0.4-0.7-0.5-1.5-0.5-2.4v-4.3c0-0.9,0.2-1.7,0.6-2.4
			c0.4-0.7,0.9-1.2,1.5-1.7c0.6-0.5,1.3-0.8,2.1-1c0.8-0.2,1.6-0.3,2.4-0.3c0.9,0,1.7,0.1,2.5,0.3c0.8,0.2,1.5,0.6,2.1,1
			c0.6,0.5,1.1,1,1.4,1.7c0.3,0.7,0.5,1.5,0.5,2.4V25.7z M77.4,22c0-0.5-0.1-0.9-0.2-1.2c-0.2-0.3-0.4-0.6-0.6-0.8
			c-0.3-0.2-0.5-0.4-0.9-0.5c-0.3-0.1-0.6-0.1-0.9-0.1s-0.6,0-1,0.1c-0.3,0.1-0.6,0.2-0.9,0.5c-0.3,0.2-0.5,0.5-0.6,0.8
			C72.1,21.1,72,21.5,72,22v3c0,0.5,0.1,0.9,0.2,1.2c0.1,0.3,0.4,0.6,0.6,0.8c0.3,0.2,0.5,0.4,0.9,0.5c0.3,0.1,0.7,0.1,1,0.1
			c0.3,0,0.6,0,0.9-0.1c0.3-0.1,0.6-0.2,0.9-0.5c0.3-0.2,0.5-0.5,0.6-0.8c0.2-0.3,0.2-0.7,0.2-1.2V22z"/>
		<path class="st0" d="M97,25.7c0,1.8-0.5,3.2-1.4,4.1c-0.9,0.9-2.1,1.3-3.7,1.3c-0.5,0-1.1-0.1-1.8-0.3c-0.7-0.2-1.5-0.5-2.3-1
			l-0.3,1.2H84V9.5h3.8l0,7.8c1-0.6,1.8-0.9,2.5-1.1c0.7-0.2,1.3-0.3,1.8-0.3c1.7,0,2.9,0.5,3.7,1.5c0.8,1,1.1,2.3,1.1,3.9V25.7z
			 M93.1,21.8c0-0.8-0.2-1.4-0.5-1.8c-0.4-0.3-0.8-0.5-1.3-0.5c-0.5,0-1,0.1-1.6,0.4c-0.6,0.3-1.2,0.6-1.8,1v5.5
			c0.2,0.1,0.5,0.3,0.8,0.4c0.3,0.1,0.6,0.3,0.9,0.4c0.3,0.1,0.6,0.2,0.9,0.3c0.3,0.1,0.6,0.1,0.8,0.1c0.5,0,1-0.2,1.3-0.5
			c0.4-0.4,0.5-0.9,0.5-1.7V21.8z"/>
		<path class="st0" d="M100.2,12.1c0-0.6,0.2-1.1,0.6-1.5s0.9-0.6,1.5-0.6c0.6,0,1.1,0.2,1.5,0.6s0.6,0.9,0.6,1.5
			c0,0.6-0.2,1.1-0.6,1.5c-0.4,0.4-0.9,0.6-1.5,0.6c-0.6,0-1.1-0.2-1.5-0.6C100.4,13.2,100.2,12.7,100.2,12.1z M100.4,30.9V16.1h3.8
			v14.8H100.4z"/>
		<path class="st0" d="M112.2,26.1c0,0.3,0,0.6,0.1,0.8c0,0.2,0.1,0.4,0.3,0.5c0.2,0.1,0.4,0.2,0.6,0.2c0.3,0,0.6,0.1,1,0.1l0.1,3.2
			c-0.3,0.1-0.7,0.1-1,0.1c-0.3,0-0.6,0-0.9,0c-0.9,0-1.6-0.1-2.1-0.3c-0.5-0.2-0.9-0.5-1.2-0.9c-0.3-0.4-0.5-0.8-0.6-1.3
			c-0.1-0.5-0.1-1.1-0.1-1.7V9.5h3.8V26.1z"/>
		<path class="st0" d="M120.1,24.6v0.5c0,0.4,0.1,0.8,0.2,1.1c0.2,0.3,0.4,0.6,0.6,0.8c0.3,0.2,0.5,0.4,0.9,0.4
			c0.3,0.1,0.7,0.2,1,0.2c0.4,0,0.9-0.1,1.6-0.2c0.6-0.1,1.3-0.5,2-1l2.1,2.6c-0.5,0.4-0.9,0.8-1.4,1.1c-0.5,0.3-0.9,0.5-1.4,0.6
			c-0.5,0.1-0.9,0.3-1.4,0.3c-0.5,0-0.9,0.1-1.4,0.1c-0.9,0-1.7-0.1-2.5-0.3c-0.8-0.2-1.5-0.6-2.1-1c-0.6-0.4-1.1-1-1.4-1.7
			c-0.4-0.7-0.5-1.5-0.5-2.4v-3.8c0-0.9,0.2-1.7,0.5-2.5c0.3-0.7,0.8-1.3,1.4-1.8c0.6-0.5,1.2-0.9,2-1.1c0.8-0.3,1.6-0.4,2.5-0.4
			c0.9,0,1.8,0.1,2.5,0.4c0.8,0.3,1.4,0.6,2,1.1c0.6,0.5,1,1.1,1.3,1.8c0.3,0.7,0.5,1.5,0.5,2.5v2.9H120.1z M125.1,21.9
			c0-0.8-0.3-1.4-0.8-1.8c-0.5-0.4-1.1-0.6-1.8-0.6c-0.7,0-1.3,0.2-1.8,0.7c-0.5,0.4-0.8,1.1-0.8,1.9v0.2h5.1V21.9z"/>
		<path class="st0" d="M140.5,29.7c-0.9,0.5-1.7,0.9-2.4,1.1s-1.4,0.3-2,0.3c-1.5,0-2.7-0.4-3.5-1.2c-0.8-0.8-1.2-1.9-1.2-3.3
			c0-0.8,0.2-1.5,0.5-2.1c0.3-0.6,0.8-1,1.3-1.4c0.5-0.4,1.1-0.6,1.8-0.8c0.6-0.2,1.2-0.2,1.8-0.2h3.8v-0.6c0-0.7-0.2-1.2-0.6-1.6
			c-0.4-0.3-1.1-0.5-2.1-0.5c-0.5,0-1.1,0.1-1.8,0.2c-0.7,0.1-1.4,0.5-2.1,1.1l-1.7-2.8c1-0.8,2.1-1.3,3.1-1.6c1-0.2,2-0.4,2.9-0.4
			c2.1,0,3.7,0.5,4.7,1.4c1,1,1.5,2.4,1.5,4.4v9.3h-3.5L140.5,29.7L140.5,29.7z M140.6,24.9h-3.2c-0.2,0-0.5,0-0.7,0
			c-0.2,0-0.4,0.1-0.6,0.2c-0.2,0.1-0.3,0.3-0.5,0.5c-0.1,0.2-0.2,0.4-0.2,0.7c0,0.4,0.1,0.7,0.4,1c0.3,0.3,0.7,0.4,1.3,0.4
			c0.6,0,1.3-0.1,1.9-0.4c0.6-0.3,1.1-0.5,1.5-0.7V24.9z"/>
		<path class="st0" d="M160.4,25.8c0,1.6-0.4,2.9-1.3,3.9c-0.9,1-2.2,1.5-3.9,1.5c-0.5,0-1.1-0.1-1.8-0.1c-0.7-0.1-1.4-0.3-2.1-0.7
			v6.6h-3.8V16.1h3.5l0.3,1.3c0.8-0.5,1.6-0.9,2.4-1.1c0.7-0.2,1.4-0.4,1.9-0.4c1.6,0,2.8,0.4,3.7,1.3c0.8,0.9,1.3,2.3,1.3,4.1V25.8
			z M156.5,21.7c0-0.9-0.2-1.5-0.5-1.8c-0.4-0.3-0.8-0.5-1.3-0.5c-0.2,0-0.5,0-0.8,0.1c-0.3,0.1-0.6,0.2-0.9,0.3
			c-0.3,0.1-0.6,0.3-0.9,0.4c-0.3,0.2-0.6,0.3-0.8,0.5v5.9c0.7,0.3,1.3,0.5,1.8,0.6c0.5,0.1,1,0.2,1.4,0.2c0.6,0,1.1-0.1,1.5-0.5
			s0.6-0.9,0.6-1.8V21.7z"/>
		<path class="st0" d="M176.2,25.8c0,1.6-0.4,2.9-1.3,3.9c-0.9,1-2.2,1.5-3.9,1.5c-0.5,0-1.1-0.1-1.8-0.1c-0.7-0.1-1.4-0.3-2.1-0.7
			v6.6h-3.8V16.1h3.5l0.3,1.3c0.8-0.5,1.6-0.9,2.4-1.1c0.7-0.2,1.4-0.4,1.9-0.4c1.6,0,2.8,0.4,3.7,1.3c0.8,0.9,1.3,2.3,1.3,4.1V25.8
			z M172.3,21.7c0-0.9-0.2-1.5-0.5-1.8c-0.4-0.3-0.8-0.5-1.3-0.5c-0.2,0-0.5,0-0.8,0.1c-0.3,0.1-0.6,0.2-0.9,0.3
			c-0.3,0.1-0.6,0.3-0.9,0.4c-0.3,0.2-0.6,0.3-0.8,0.5v5.9c0.7,0.3,1.3,0.5,1.8,0.6c0.5,0.1,1,0.2,1.4,0.2c0.6,0,1.1-0.1,1.5-0.5
			s0.6-0.9,0.6-1.8V21.7z"/>
	</g>
	<path d="M25.5,14.7c1.9-6.7,6.4-6.5,6.7-6.5c0.6,0.1,1.2-0.3,1.4-0.8c0.2-0.6,0.1-1.2-0.4-1.6c-3.1-2.6-6.3-4.3-9.5-5.2
		c-2.7-0.7-5.5-0.8-8.2-0.2C11.7,1.1,8.7,3,7.1,4.3L4.4,1.6C3.9,1,3,1,2.4,1.6c-0.5,0.5-0.5,1.4,0,2L6,7.1c0.5,0.5,1.4,0.6,1.9,0.1
		C10.3,5.1,18.6-0.9,29,6c-0.2,0.1-0.3,0.1-0.5,0.2C26.7,7.1,24.4,9,23,13.2c-1.3,0.4-4,1.4-6.2,3.6c-2.2,2.2-3.2,4.9-3.6,6.2
		c-4.1,1.3-6,3.7-6.9,5.4C6.2,28.6,6.1,28.8,6,29c-5-7.5-3.4-13.9-0.9-18.1c0.4-0.7,0.2-1.5-0.5-1.9C3.9,8.5,3.1,8.8,2.7,9.4
		c-2.6,4.5-5.6,13.5,3,23.8c0.3,0.3,0.7,0.5,1.1,0.5c0.2,0,0.4,0,0.5-0.1c0.6-0.2,0.9-0.8,0.8-1.4c0,0-0.4-4.8,6.5-6.7
		c0.5-0.1,0.9-0.6,1-1.1c0,0,0.6-3.2,3.1-5.6s5.5-3,5.6-3C24.9,15.6,25.3,15.3,25.5,14.7z M35.8,23.4l-1.6-1.6c-0.5-0.5-1.4-0.5-2,0
		c-0.5,0.5-0.5,1.4,0,2l1.6,1.6c0.4,0.4,0.7,1,0.7,1.6c0,0.6-0.2,1.2-0.7,1.6c-0.4,0.4-1,0.7-1.6,0.7c-0.6,0-1.2-0.2-1.6-0.7
		l-8.3-8.3c-0.5-0.5-1.4-0.5-2,0c-0.5,0.5-0.5,1.4,0,2l8.3,8.3c1,1,2.2,1.5,3.6,1.5c1.4,0,2.6-0.5,3.6-1.5c1-1,1.5-2.2,1.5-3.6
		C37.3,25.6,36.8,24.4,35.8,23.4z"/>
</g>
</svg>
