<svg xmlns="http://www.w3.org/2000/svg"><symbol id="icon_01" viewBox="0 0 36 36"><path class="st0" d="M18 0C8.1 0 0 8.1 0 18s8.1 18 18 18 18-8.1 18-18S27.9 0 18 0zM9.2 32.4c.6-.3 1.4-.3 2.6-.3h1.7c.2 0 .4-.1.5-.2l1.9-2.9c.1-.1.1-.2.1-.4.6.3 1.3.5 2 .5s1.4-.2 2.1-.5c0 .1 0 .3.1.4l2 2.9c.1.1.3.2.5.2h2c1.1 0 1.7 0 2.2.3-2.6 1.6-5.6 2.5-8.9 2.5-3.2 0-6.3-.9-8.8-2.5zm14.5-19c.6 2.2 1.2 6-.1 7.1-.1.1-.2.3-.2.4 0 3.1-2.6 7.1-5.4 7.1-2.9 0-5.4-4-5.4-7.1v-.2c-1.6-3.7-.3-7.2-.2-7.2v-.2c0-1.9.3-3.3 4.5-3.3.1 0 .2 0 .3-.1 1.2-.7 2.3-1.1 3.4-1.1 1.2 0 2.2.5 2.8 1.4.6.9.7 1.9.4 2.9-.2.1-.2.2-.1.3zm4.2 18.3C27 31 26 31 24.6 31h-1.7l-1.8-2.6c-.1-.1-.2-.2-.3-.2 2.1-1.5 3.6-4.4 3.7-7 1.8-1.9.6-6.8.3-7.9.4-1.3.2-2.7-.5-3.8-.8-1.2-2.2-1.9-3.7-1.9-1.2 0-2.5.4-3.8 1.2-4.7 0-5.5 2.1-5.5 4.3-.2.7-1.4 4.1.2 7.9 0 2.6 1.6 5.6 3.8 7.1-.1 0-.2.1-.3.2L13.2 31h-1.4c-1.5 0-2.6 0-3.7.7-4.2-3.1-7-8.1-7-13.7C1.1 8.7 8.7 1.1 18 1.1c9.3 0 16.9 7.6 16.9 16.9 0 5.6-2.8 10.6-7 13.7z"/></symbol><symbol id="icon_02" viewBox="0 0 36 31.3"><path class="st0" d="M21 7.8c0-1.7-1.3-3-3-3s-3 1.3-3 3 1.3 3 3 3 3-1.3 3-3zm-4.8 0c0-1 .8-1.8 1.8-1.8s1.8.8 1.8 1.8S19 9.6 18 9.6s-1.8-.8-1.8-1.8zM18 25.6l.5-.6c.3-.4 8-9.8 8-16 0-5-3.8-9-8.4-9-4.6 0-8.4 4.1-8.4 9 0 6.2 7.6 15.6 7.9 16l.4.6zm0-24.4c4 0 7.2 3.5 7.2 7.8 0 4.9-5.6 12.5-7.2 14.7-1.7-2.2-7.2-9.7-7.2-14.7 0-4.3 3.2-7.8 7.2-7.8zM4.9 19.3L.3 27.7c-.6 1.2-.2 2.6.9 3.2.4.2.8.3 1.2.3h31.2c1.3 0 2.4-1.1 2.4-2.4 0-.4-.1-.8-.3-1.2l-4.6-8.4c-.5-.7-1.3-1.2-2.1-1.2h-4.4c-.3 0-.6.3-.6.6s.3.6.6.6H29c.4 0 .8.2 1 .6l4.6 8.4c.3.6.1 1.3-.5 1.6-.2.1-.4.1-.6.1H2.4c-.7 0-1.2-.5-1.2-1.2 0-.2.1-.4.1-.6L6 19.8c.2-.4.6-.6 1-.6h4.4c.3 0 .6-.3.6-.6s-.3-.6-.6-.6H7c-.8 0-1.6.5-2.1 1.3z"/></symbol><symbol id="icon_03" viewBox="0 0 36 34.8"><path class="st0" d="M14.5 34.8h15.1c1.3.1 2.5-.4 3.3-1.4.6-.9.9-2.1.8-3.2.8-1 1.1-2.2 1.1-3.4 0-.5-.1-.9-.2-1.4.7-.8 1-1.8 1.1-2.8.1-.8-.1-1.6-.4-2.3.5-.7.7-1.6.7-2.4.1-3.4-3.1-4.9-5.2-5.1l-4.6.1c.1-.2.2-.3.3-.5 1.1-1.5 2-3.2 2.5-5.1 1.4-4-2.1-6.8-2.2-6.9l-.2-.2h-.1c-.4-.1-.9-.2-1.3-.2-.5 0-1.1.1-1.5.4-1 .7-1.7 1.9-1.7 3.1-.3 2.7-2.6 5.1-3.9 6.1-.2.1-.3.3-.4.3-1 1.1-1.7 2.3-2.2 3.7l-.3.6c-.5.9-1.2 1.8-2 2.5h-1.1c-.1-.8-.8-1.5-1.7-1.6H2.3C1 15.2 0 16.2 0 17.5v15.2c.1 1.2 1.1 2.2 2.3 2.1h12.2zm-3.2-16.9H13.7l.2-.1c.9-.9 1.8-1.9 2.4-3l.3-.6c.5-1.2 1.1-2.3 2-3.3.1-.1.2-.2.4-.3.4-.3 3.9-3.1 4.3-6.9 0-.9.4-1.7 1.1-2.2.3-.2.6-.2.9-.2.3 0 .5 0 .8.1l.1.1c.3.3 2.9 2.5 1.8 5.6-.5 1.7-1.3 3.3-2.4 4.7-.5.5-.7 1.3-.5 2l.1.3h.5l5.1-.1c1.4.1 4.2 1.1 4.1 3.9 0 .7-.2 1.5-.7 2.1l-.2.3.2.3c.4.6.5 1.3.4 2 0 .9-.4 1.7-1 2.4l-.3.3.2.4c.2.4.3.8.3 1.2.1 1-.3 2.1-.9 2.8l-.2.2.1.3c.2.9 0 1.8-.5 2.6-.6.6-1.5 1-2.4.9H11V17.2c0 .1.1.2.1.3l.2.4zM1.2 32.7V17.5c0-.6.5-1.2 1.2-1.2h7.5v17.4H2.3c-.6 0-1.1-.4-1.1-1z"/></symbol><symbol id="icon_04" viewBox="0 0 30.5 36.3"><path class="st0" d="M15.1 13.9h-3.8c-.3 0-.4.4-.4.8v1H6.8c-5.7 0-6.8 3-6.8 4.8v10.8c.1.4.5.6.8.6h2.6v3.9c0 .3.3.6.6.6s.6-.3.6-.6v-3.9h2.2c.3 0 .6-.2.7-.6v-6.9H11v.9c0 .3.1.8.4.8h3.8c3.3-.1 6-2.9 5.8-6.3-.2-3.2-2.7-5.8-5.9-5.9zM6.3 30.6H1.1V20.4c0-2.3 1.7-3.5 5.2-3.6v13.8zm4.7-7.5H7.5v-6.3H11v6.3zm4.1 1.8h-3v-9.8h3c2.7.1 4.8 2.4 4.7 5.1-.1 2.5-2.1 4.6-4.7 4.7z"/><path class="st0" d="M23.7 1.7h-4.1v-1c0-.3-.1-.8-.4-.8h-3.8c-3.2.1-5.7 2.7-5.8 5.8-.1 3.3 2.5 6.2 5.8 6.3h3.8c.3 0 .4-.5.4-.8v-.9H23v6.9c0 .3.3.6.7.6h2.2v12.5c0 .3.3.6.6.6s.6-.3.6-.6V17.9h2.6c.4 0 .7-.2.8-.6V6.5c0-1.8-1.1-4.8-6.8-4.8zM18.4 11h-3c-2.5-.1-4.6-2.1-4.7-4.7-.1-2.7 2-5 4.7-5.1h3V11zM23 9.2h-3.5V2.9H23v6.3zm6.4 7.5h-5.2V2.9c3.5.1 5.2 1.3 5.2 3.6v10.2z"/></symbol><symbol id="icon_05" viewBox="0 0 26 35.5"><path class="st0" d="M23.5 20.7h-.2c-.5 0-1 .2-1.5.5 0-1.4-1.1-2.6-2.5-2.6h-.2c-.6.1-1.1.3-1.5.6v-.1c0-1.4-1-2.6-2.4-2.6H15c-.6.1-1.1.3-1.6.6v-6.2c0-1.3-1-2.3-2.2-2.4h-.4c-1.4-.1-2.6 1-2.7 2.4v15.9l-2.3-2.3c-.5-.5-1.1-.7-1.7-.7-.7 0-1.3.3-1.8.7l-.3.1c-.5.5-.7 1.1-.7 1.8s.3 1.3.7 1.7l6.1 6.7c.4.5 1 .7 1.6.7h14.1c1 0 1.8-.7 2.1-1.6h.1V23.3c0-1.4-1.1-2.6-2.5-2.6zm1.4 12.8c0 .6-.5 1-1 1H9.8c-.3 0-.6-.1-.8-.4l-6.2-6.8c-.3-.3-.4-.6-.4-1s.2-.7.4-1l.2-.2c.3-.3.7-.4 1-.4.4 0 .7.2 1 .4l4 4.2V10.8c.1-.8.8-1.4 1.6-1.3h.2c.7-.1 1.3.4 1.3 1.1v8.1h1.1c.2-.7.8-1.2 1.5-1.3h.2c.8.1 1.4.7 1.4 1.6v1.8h1.1c.1-.7.8-1.3 1.5-1.3h.2c.8.1 1.4.7 1.4 1.6V23h1.1c.1-.7.8-1.2 1.5-1.2h.2c.8 0 1.5.7 1.5 1.5l.1 10.2zM3.7 9H0v1.1h3.7V9zm7.4-9H10v3.7h1.1V0zM6.8 5.4L4.1 2.7l-.8.8 2.8 2.7.7-.8zM18 10.1h3.7V9H18v1.1zm.2-6.6l-.7-.8-2.8 2.7.7.8 2.8-2.7z"/></symbol><symbol id="icon_06" viewBox="0 0 36.1 36"><path class="st0" d="M18.2 0H18C8.1.1.1 8 0 17.9-.1 27.7 7.9 35.5 17.8 36h.2c9.9 0 18-8 18.1-17.9 0-10-8-18.1-17.9-18.1zM18 34.9h-.1c-9.4-.5-16.9-7.8-16.8-17C1.2 8.6 8.7 1.1 18 1.1h.1c9.3 0 16.9 7.6 16.9 17 0 9.3-7.7 16.9-17 16.8zm8-25.5l-11 5.2c-.1.1-.2.1-.3.3L9.3 25.7c-.1.2-.1.5.1.6.1.1.2.2.4.2.1 0 .2 0 .2-.1l11-5.2c.1-.1.2-.1.3-.3l5.4-10.8c.1-.2.1-.5-.1-.6-.2-.2-.4-.2-.6-.1zm-5.6 10.9L11 24.7l4.6-9.2L25 11l-4.6 9.3z"/></symbol><symbol id="icon_android" viewBox="0 0 28 32"><path id="icon-2" class="st0" d="M26 10c-1.1 0-2 .9-2 2v8c0 1.1.9 2 2 2s2-.9 2-2v-8c0-1.1-.9-2-2-2zM2 10c-1.1 0-2 .9-2 2v8c0 1.1.9 2 2 2s2-.9 2-2v-8c0-1.1-.9-2-2-2zm3 13c0 1.7 1.3 3 3 3h1v4c0 1.1.9 2 2 2s2-.9 2-2v-4h2v4c0 1.1.9 2 2 2s2-.9 2-2v-4h1c1.7 0 3-1.3 3-3V12H5v11zM17.7 2.8L19 .4c0-.2 0-.3-.1-.4-.1-.1-.3 0-.3.1l-1.3 2.5c-2.1-.8-4.4-.8-6.5 0L9.5.1C9.4 0 9.3 0 9.1 0 9 .1 9 .2 9 .4l1.3 2.4c-2.9 1.3-4.9 4-5.2 7.2H23c-.4-3.2-2.4-5.9-5.3-7.2zM10 8.5c-.8 0-1.4-.7-1.4-1.5s.6-1.4 1.4-1.4 1.4.6 1.4 1.4c0 .8-.6 1.5-1.4 1.5zm8 0c-.8 0-1.4-.6-1.4-1.4s.6-1.4 1.5-1.4 1.4.6 1.4 1.4c-.1.7-.7 1.4-1.5 1.4z"/></symbol><symbol id="icon_apple" viewBox="0 0 26.1 32"><path id="icon-3" class="st0" d="M21.8 17c0-2.5 1.3-4.8 3.5-6.1C24 9 21.8 7.8 19.4 7.7c-2.5-.3-4.9 1.5-6.1 1.5S10 7.8 8 7.8c-2.8.1-5.3 1.6-6.6 4C-1.5 16.7.6 24 3.4 28c1.3 1.9 2.9 4.1 5.1 4.1 2-.1 2.8-1.3 5.2-1.3s3.1 1.3 5.3 1.3c2.2 0 3.6-2 4.9-3.9 1-1.4 1.7-2.9 2.2-4.6-2.6-1.2-4.3-3.8-4.3-6.6zM17.7 5.1c1.2-1.4 1.8-3.3 1.7-5.1-1.8.2-3.5 1-4.7 2.4-1.2 1.4-1.8 3.1-1.7 4.9 1.8.1 3.6-.7 4.7-2.2z"/></symbol><symbol id="icon_cloud" viewBox="0 0 42 34"><path class="st0" d="M33.3 11.4C33.2 5.1 28 0 21.6 0c-2.9 0-5.6 1-7.8 2.9-1.9 1.7-3.2 3.9-3.7 6.3H10C4.5 9.2 0 13.6 0 19s4.5 9.8 10 9.8h3.7c.5 0 .9-.4.9-.9s-.4-.9-.9-.9H10c-4.5 0-8.2-3.6-8.2-8.1 0-4.4 3.7-8.1 8.2-8.1h.8c.5 0 .9-.3 1-.8.3-2.3 1.5-4.5 3.3-6 1.8-1.6 4.1-2.4 6.6-2.4 5.5 0 10 4.4 10 9.8v.7c0 .3.1.5.3.7.2.2.5.3.7.2h.7c3.9 0 7 3.1 7 7 0 3.8-3.2 7-7 7h-4c-.5 0-.9.4-.9.9s.4.9.9.9h4c4.9 0 8.8-3.9 8.8-8.7-.2-4.7-4.1-8.6-8.9-8.7zM21.6 5.9c.5 0 .9-.4.9-.9s-.4-.9-.9-.9c-3.7 0-7 2.8-7.5 6.4-.1.5.3.9.8 1 .5.1.9-.3 1-.8.4-2.7 2.8-4.8 5.7-4.8zm2.8 23.5l-2.2 1.9V20.4c0-.5-.4-.9-.9-.9s-.9.4-.9.9v10.9l-2.2-1.9c-.4-.3-.9-.3-1.3.1-.3.4-.3.9.1 1.2l3.3 2.9c.3.2.6.4 1 .4s.7-.1 1-.4l3.3-2.9c.4-.3.4-.9.1-1.2-.3-.4-.9-.4-1.3-.1z"/></symbol><symbol id="icon_line" viewBox="0 0 160.1 21"><path class="st0" d="M83.6 1l-1.7-1-5.4 9.5H0v2h77.6l6-10.5zm-1.1 8.5l-6 10.5 1.7 1 5.4-9.5h76.5v-2H82.5z"/></symbol><symbol id="icon_logo" viewBox="0 0 175.1 36.9"><path class="st0" d="M61 19.8l-2 3.9-2.3 4.4h-3l-2.3-4.4-2-3.9h-.1v11.1h-4.1V10.3H49l3.7 7.3 2.5 5.1h.2l2.5-5.2 3.5-7.2h3.8V31h-4.1V19.8H61zM81.2 25.7c0 .9-.2 1.7-.6 2.4-.4.7-.9 1.2-1.5 1.7s-1.3.8-2.1 1c-.8.2-1.6.3-2.4.3-.8 0-1.6-.1-2.4-.3-.8-.2-1.5-.6-2.1-1-.6-.4-1.1-1-1.5-1.7-.4-.7-.5-1.5-.5-2.4v-4.3c0-.9.2-1.7.6-2.4.4-.7.9-1.2 1.5-1.7s1.3-.8 2.1-1c.8-.2 1.6-.3 2.4-.3.9 0 1.7.1 2.5.3.8.2 1.5.6 2.1 1 .6.5 1.1 1 1.4 1.7.3.7.5 1.5.5 2.4v4.3zM77.4 22c0-.5-.1-.9-.2-1.2-.2-.3-.4-.6-.6-.8-.3-.2-.5-.4-.9-.5-.3-.1-.6-.1-.9-.1s-.6 0-1 .1c-.3.1-.6.2-.9.5-.3.2-.5.5-.6.8-.2.3-.3.7-.3 1.2v3c0 .5.1.9.2 1.2.1.3.4.6.6.8.3.2.5.4.9.5.3.1.7.1 1 .1.3 0 .6 0 .9-.1.3-.1.6-.2.9-.5.3-.2.5-.5.6-.8.2-.3.2-.7.2-1.2v-3zM97 25.7c0 1.8-.5 3.2-1.4 4.1-.9.9-2.1 1.3-3.7 1.3-.5 0-1.1-.1-1.8-.3-.7-.2-1.5-.5-2.3-1l-.3 1.2H84V9.5h3.8v7.8c1-.6 1.8-.9 2.5-1.1.7-.2 1.3-.3 1.8-.3 1.7 0 2.9.5 3.7 1.5.8 1 1.1 2.3 1.1 3.9v4.4zm-3.9-3.9c0-.8-.2-1.4-.5-1.8-.4-.3-.8-.5-1.3-.5s-1 .1-1.6.4c-.6.3-1.2.6-1.8 1v5.5c.2.1.5.3.8.4.3.1.6.3.9.4l.9.3c.3.1.6.1.8.1.5 0 1-.2 1.3-.5.4-.4.5-.9.5-1.7v-3.6zM100.2 12.1c0-.6.2-1.1.6-1.5s.9-.6 1.5-.6 1.1.2 1.5.6.6.9.6 1.5-.2 1.1-.6 1.5c-.4.4-.9.6-1.5.6s-1.1-.2-1.5-.6c-.4-.4-.6-.9-.6-1.5zm.2 18.8V16.1h3.8v14.8h-3.8zM112.2 26.1c0 .3 0 .6.1.8 0 .2.1.4.3.5.2.1.4.2.6.2.3 0 .6.1 1 .1l.1 3.2c-.3.1-.7.1-1 .1h-.9c-.9 0-1.6-.1-2.1-.3-.5-.2-.9-.5-1.2-.9-.3-.4-.5-.8-.6-1.3-.1-.5-.1-1.1-.1-1.7V9.5h3.8v16.6zM120.1 24.6v.5c0 .4.1.8.2 1.1.2.3.4.6.6.8.3.2.5.4.9.4.3.1.7.2 1 .2.4 0 .9-.1 1.6-.2.6-.1 1.3-.5 2-1l2.1 2.6c-.5.4-.9.8-1.4 1.1-.5.3-.9.5-1.4.6-.5.1-.9.3-1.4.3-.5 0-.9.1-1.4.1-.9 0-1.7-.1-2.5-.3-.8-.2-1.5-.6-2.1-1-.6-.4-1.1-1-1.4-1.7-.4-.7-.5-1.5-.5-2.4v-3.8c0-.9.2-1.7.5-2.5.3-.7.8-1.3 1.4-1.8.6-.5 1.2-.9 2-1.1.8-.3 1.6-.4 2.5-.4.9 0 1.8.1 2.5.4.8.3 1.4.6 2 1.1.6.5 1 1.1 1.3 1.8.3.7.5 1.5.5 2.5v2.9h-9zm5-2.7c0-.8-.3-1.4-.8-1.8-.5-.4-1.1-.6-1.8-.6s-1.3.2-1.8.7c-.5.4-.8 1.1-.8 1.9v.2h5.1v-.4zM140.5 29.7c-.9.5-1.7.9-2.4 1.1s-1.4.3-2 .3c-1.5 0-2.7-.4-3.5-1.2-.8-.8-1.2-1.9-1.2-3.3 0-.8.2-1.5.5-2.1.3-.6.8-1 1.3-1.4.5-.4 1.1-.6 1.8-.8.6-.2 1.2-.2 1.8-.2h3.8v-.6c0-.7-.2-1.2-.6-1.6-.4-.3-1.1-.5-2.1-.5-.5 0-1.1.1-1.8.2s-1.4.5-2.1 1.1l-1.7-2.8c1-.8 2.1-1.3 3.1-1.6 1-.2 2-.4 2.9-.4 2.1 0 3.7.5 4.7 1.4 1 1 1.5 2.4 1.5 4.4V31H141l-.5-1.3zm.1-4.8H136.7c-.2 0-.4.1-.6.2-.2.1-.3.3-.5.5-.1.2-.2.4-.2.7 0 .4.1.7.4 1 .3.3.7.4 1.3.4.6 0 1.3-.1 1.9-.4.6-.3 1.1-.5 1.5-.7v-1.7zM160.4 25.8c0 1.6-.4 2.9-1.3 3.9s-2.2 1.5-3.9 1.5c-.5 0-1.1-.1-1.8-.1-.7-.1-1.4-.3-2.1-.7V37h-3.8V16.1h3.5l.3 1.3c.8-.5 1.6-.9 2.4-1.1.7-.2 1.4-.4 1.9-.4 1.6 0 2.8.4 3.7 1.3.8.9 1.3 2.3 1.3 4.1v4.5zm-3.9-4.1c0-.9-.2-1.5-.5-1.8-.4-.3-.8-.5-1.3-.5-.2 0-.5 0-.8.1l-.9.3c-.3.1-.6.3-.9.4-.3.2-.6.3-.8.5v5.9c.7.3 1.3.5 1.8.6.5.1 1 .2 1.4.2.6 0 1.1-.1 1.5-.5s.6-.9.6-1.8v-3.4zM176.2 25.8c0 1.6-.4 2.9-1.3 3.9s-2.2 1.5-3.9 1.5c-.5 0-1.1-.1-1.8-.1-.7-.1-1.4-.3-2.1-.7V37h-3.8V16.1h3.5l.3 1.3c.8-.5 1.6-.9 2.4-1.1.7-.2 1.4-.4 1.9-.4 1.6 0 2.8.4 3.7 1.3.8.9 1.3 2.3 1.3 4.1v4.5zm-3.9-4.1c0-.9-.2-1.5-.5-1.8-.4-.3-.8-.5-1.3-.5-.2 0-.5 0-.8.1l-.9.3c-.3.1-.6.3-.9.4-.3.2-.6.3-.8.5v5.9c.7.3 1.3.5 1.8.6.5.1 1 .2 1.4.2.6 0 1.1-.1 1.5-.5s.6-.9.6-1.8v-3.4z"/><path d="M25.5 14.7c1.9-6.7 6.4-6.5 6.7-6.5.6.1 1.2-.3 1.4-.8.2-.6.1-1.2-.4-1.6-3.1-2.6-6.3-4.3-9.5-5.2-2.7-.7-5.5-.8-8.2-.2-3.8.7-6.8 2.6-8.4 3.9L4.4 1.6c-.5-.6-1.4-.6-2 0-.5.5-.5 1.4 0 2L6 7.1c.5.5 1.4.6 1.9.1C10.3 5.1 18.6-.9 29 6c-.2.1-.3.1-.5.2-1.8.9-4.1 2.8-5.5 7-1.3.4-4 1.4-6.2 3.6s-3.2 4.9-3.6 6.2c-4.1 1.3-6 3.7-6.9 5.4L6 29c-5-7.5-3.4-13.9-.9-18.1.4-.7.2-1.5-.5-1.9-.7-.5-1.5-.2-1.9.4-2.6 4.5-5.6 13.5 3 23.8.3.3.7.5 1.1.5.2 0 .4 0 .5-.1.6-.2.9-.8.8-1.4 0 0-.4-4.8 6.5-6.7.5-.1.9-.6 1-1.1 0 0 .6-3.2 3.1-5.6s5.5-3 5.6-3c.6-.2 1-.5 1.2-1.1zm10.3 8.7l-1.6-1.6c-.5-.5-1.4-.5-2 0-.5.5-.5 1.4 0 2l1.6 1.6c.4.4.7 1 .7 1.6 0 .6-.2 1.2-.7 1.6-.4.4-1 .7-1.6.7-.6 0-1.2-.2-1.6-.7l-8.3-8.3c-.5-.5-1.4-.5-2 0-.5.5-.5 1.4 0 2l8.3 8.3c1 1 2.2 1.5 3.6 1.5s2.6-.5 3.6-1.5 1.5-2.2 1.5-3.6-.5-2.6-1.5-3.6z"/></symbol><symbol id="icon_windows" viewBox="0 0 32 32"><path id="icon" class="st0" d="M0 14.9V4.5l12.8-1.7v12.1H0zM14.9 2.5L32 0v14.9H14.9V2.5zM32 17.1V32l-17.1-2.4V17.1H32zM12.8 29.3L0 27.6V17.1h12.8v12.2z"/></symbol></svg>